<svg preserveAspectRatio="xMidYMid meet" viewBox="103.63636363636364 36.32 117.27272727272728 385.9" xmlns="http://www.w3.org/2000/svg" version="1.0" style="max-height: 500px" width="117.27272727272728" height="385.9">  <g stroke="none" fill="#4caf50" transform="translate(0.000000,454.000000) scale(0.100000,-0.100000)"> <path d="M2059 3964 c-290 -332 -468 -620 -619 -999 -134 -338 -229 -716 -285 -1133 -34 -255 -44 -394 -52 -687 -9 -372 19 -611 81 -706 41 -61 138 -93 210 -69 49 16 81 61 105 150 27 101 36 174 71 600 80 963 135 1365 265 1905 70 290 147 531 274 858 83 213 76 225 -50 81z"/> </g> </svg>